D:\school\WTK\thesis\model\3dpredictsim\Results\debug_batch\Pog_s1_tmt_bCst_d05_k500_ig24_act_TTC_GRF.mot
nRows=22
nColumns=19

name D:\school\WTK\thesis\model\3dpredictsim\Results\debug_batch\Pog_s1_tmt_bCst_d05_k500_ig24_act_TTC_GRF.mot
datacolumns 19
datarows 22
range 0.0000000000 0.2643248564
endheader
time 	ground_force_vx	ground_force_vy	ground_force_vz	ground_force_px	ground_force_py	ground_force_pz	1_ground_force_vx	1_ground_force_vy	1_ground_force_vz	1_ground_force_px	1_ground_force_py	1_ground_force_pz	ground_torque_x	ground_torque_y	ground_torque_z	1_ground_torque_x	1_ground_torque_y	1_ground_torque_z
        0.0000000000	      -77.7512661490	       68.7050908062	       22.3224234860	        0.1909466677	        0.0000000000	        0.0517779145	       77.9095303036	      335.6208601085	       -5.2171265448	       -0.3714801103	        0.0000000000	       -0.0295434548	        0.0000000000	        0.0000000000	        0.0000000000	        0.0000000000	        0.0000000000	        0.0000000000	
        0.0125868979	     -107.1100210738	      213.0083639486	       44.2579257310	        0.1973044328	        0.0000000000	        0.0502392916	       41.7363076192	      223.3505923633	      -15.3584545582	       -0.3576935124	        0.0000000000	       -0.0237413960	        0.0000000000	        0.0000000000	        0.0000000000	        0.0000000000	        0.0000000000	        0.0000000000	
        0.0251737959	      -71.3693135615	      465.0143279746	        3.4469035834	        0.2016959447	        0.0000000000	        0.0492695405	       23.9855080870	      175.1594284515	      -18.4151762887	       -0.3528721033	        0.0000000000	       -0.0214343449	        0.0000000000	        0.0000000000	        0.0000000000	        0.0000000000	        0.0000000000	        0.0000000000	
        0.0377606938	      -99.7168432163	      723.9886882994	      -17.3293966117	        0.2106854947	        0.0000000000	        0.0508030022	       18.2532982714	      131.2295013955	      -19.0233748147	       -0.3525714542	        0.0000000000	       -0.0215638312	        0.0000000000	        0.0000000000	        0.0000000000	        0.0000000000	        0.0000000000	        0.0000000000	
        0.0503475917	     -147.9754228226	      904.0548723010	      -22.9774089629	        0.2198042242	        0.0000000000	        0.0527700557	        4.5268241564	       75.7606718916	      -16.9179758171	       -0.3527631543	        0.0000000000	       -0.0218111577	        0.0000000000	        0.0000000000	        0.0000000000	        0.0000000000	        0.0000000000	        0.0000000000	
        0.0629344896	     -160.9915077470	      942.2084120638	      -23.4622848872	        0.2254409107	        0.0000000000	        0.0538080378	       -9.7697772022	       14.9317620150	       -4.1263755709	       -0.3567227618	        0.0000000000	       -0.0214601484	        0.0000000000	        0.0000000000	        0.0000000000	        0.0000000000	        0.0000000000	        0.0000000000	
        0.0755213876	     -145.5628003455	      903.6026393402	      -22.2401860285	        0.2295778519	        0.0000000000	        0.0543489859	        0.4888337605	       -0.3958531016	       -0.0248401813	        0.0000000000	        0.0000000000	        0.0000000000	        0.0000000000	        0.0000000000	        0.0000000000	        0.0000000000	        0.0000000000	        0.0000000000	
        0.0881082855	     -129.1359079503	      838.0739093181	      -20.0552226528	        0.2337058037	        0.0000000000	        0.0545347406	       -6.3885215223	        4.5266272420	        0.4301521145	        0.0000000000	        0.0000000000	        0.0000000000	        0.0000000000	        0.0000000000	        0.0000000000	        0.0000000000	        0.0000000000	        0.0000000000	
        0.1006951834	     -113.7933176964	      785.4587628516	      -18.5435013848	        0.2380377772	        0.0000000000	        0.0544367984	       -4.9923459315	        3.0978993111	        0.4215631533	        0.0000000000	        0.0000000000	        0.0000000000	        0.0000000000	        0.0000000000	        0.0000000000	        0.0000000000	        0.0000000000	        0.0000000000	
        0.1132820813	     -101.4651112124	      747.2824648666	      -18.3259355497	        0.2430540849	        0.0000000000	        0.0541195411	       -3.1152480713	        1.7699271344	        0.2723238158	        0.0000000000	        0.0000000000	        0.0000000000	        0.0000000000	        0.0000000000	        0.0000000000	        0.0000000000	        0.0000000000	        0.0000000000	
        0.1258689793	      -90.3242206344	      715.6661435991	      -18.6004864466	        0.2482443512	        0.0000000000	        0.0536804145	       -2.3046782085	        1.2223078361	        0.2040930622	        0.0000000000	        0.0000000000	        0.0000000000	        0.0000000000	        0.0000000000	        0.0000000000	        0.0000000000	        0.0000000000	        0.0000000000	
        0.1384558772	      -79.1553378633	      685.8524820553	      -19.2303157134	        0.2530911657	        0.0000000000	        0.0533050799	       -1.6511890248	        0.8378993828	        0.1401647269	        0.0000000000	        0.0000000000	        0.0000000000	        0.0000000000	        0.0000000000	        0.0000000000	        0.0000000000	        0.0000000000	        0.0000000000	
        0.1510427751	      -68.4509737423	      659.3182600708	      -19.8543241237	        0.2576085135	        0.0000000000	        0.0530370371	       -1.1336686394	        0.5541215624	        0.0934081394	        0.0000000000	        0.0000000000	        0.0000000000	        0.0000000000	        0.0000000000	        0.0000000000	        0.0000000000	        0.0000000000	        0.0000000000	
        0.1636296730	      -58.6320587476	      636.8058256947	      -20.1999769609	        0.2620317318	        0.0000000000	        0.0528485008	       -0.8293802753	        0.3928717838	        0.0666676184	        0.0000000000	        0.0000000000	        0.0000000000	        0.0000000000	        0.0000000000	        0.0000000000	        0.0000000000	        0.0000000000	        0.0000000000	
        0.1762165710	      -50.1472591192	      618.1413380586	      -20.6014236547	        0.2665293172	        0.0000000000	        0.0526884708	       -0.6674279429	        0.3080830468	        0.0524622612	        0.0000000000	        0.0000000000	        0.0000000000	        0.0000000000	        0.0000000000	        0.0000000000	        0.0000000000	        0.0000000000	        0.0000000000	
        0.1888034689	      -43.1551397907	      603.2659167535	      -20.5373361895	        0.2710775517	        0.0000000000	        0.0525445517	       -0.5899688562	        0.2662764727	        0.0451501292	        0.0000000000	        0.0000000000	        0.0000000000	        0.0000000000	        0.0000000000	        0.0000000000	        0.0000000000	        0.0000000000	        0.0000000000	
        0.2013903668	      -36.9428796139	      592.4025613983	      -20.4684683264	        0.2758316552	        0.0000000000	        0.0523726833	       -0.5704538126	        0.2522992809	        0.0425849653	        0.0000000000	        0.0000000000	        0.0000000000	        0.0000000000	        0.0000000000	        0.0000000000	        0.0000000000	        0.0000000000	        0.0000000000	
        0.2139772647	      -31.6698883096	      584.7360883349	      -20.1768114272	        0.2809223581	        0.0000000000	        0.0521391732	       -0.6060114715	        0.2627877740	        0.0440846801	        0.0000000000	        0.0000000000	        0.0000000000	        0.0000000000	        0.0000000000	        0.0000000000	        0.0000000000	        0.0000000000	        0.0000000000	
        0.2265641627	      -27.4002949097	      579.3746075704	      -19.5736778340	        0.2862226299	        0.0000000000	        0.0518380011	       -0.6940969240	        0.2954082683	        0.0487320984	        0.0000000000	        0.0000000000	        0.0000000000	        0.0000000000	        0.0000000000	        0.0000000000	        0.0000000000	        0.0000000000	        0.0000000000	
        0.2391510606	      -23.2720411872	      575.8270604846	      -19.1711856124	        0.2916877400	        0.0000000000	        0.0514674339	       -0.8313378339	        0.3477777263	        0.0558486136	        0.0000000000	        0.0000000000	        0.0000000000	        0.0000000000	        0.0000000000	        0.0000000000	        0.0000000000	        0.0000000000	        0.0000000000	
        0.2517379585	      -19.5182808150	      573.4391967146	      -18.8676704386	        0.2972753188	        0.0000000000	        0.0510357842	       -1.0082450549	        0.4153562464	        0.0645348277	        0.0000000000	        0.0000000000	        0.0000000000	        0.0000000000	        0.0000000000	        0.0000000000	        0.0000000000	        0.0000000000	        0.0000000000	
        0.2643248564	      -16.0097894232	      571.0121652750	      -19.0260217691	        0.3028269953	        0.0000000000	        0.0505713412	       -1.2046583598	        0.4897098470	        0.0734232674	        0.0000000000	        0.0000000000	        0.0000000000	        0.0000000000	        0.0000000000	        0.0000000000	        0.0000000000	        0.0000000000	        0.0000000000	
